<?xml version="1.0" encoding="UTF-8" standalone="no"?>
<svg
   height="1024"
   width="1024"
   version="1.1"
   id="svg18"
   sodipodi:docname="godot.svg"
   inkscape:version="1.2.2 (b0a8486541, 2022-12-01)"
   xmlns:inkscape="http://www.inkscape.org/namespaces/inkscape"
   xmlns:sodipodi="http://sodipodi.sourceforge.net/DTD/sodipodi-0.dtd"
   xmlns="http://www.w3.org/2000/svg"
   xmlns:svg="http://www.w3.org/2000/svg">
  <defs
     id="defs22" />
  <sodipodi:namedview
     id="namedview20"
     pagecolor="#505050"
     bordercolor="#eeeeee"
     borderopacity="1"
     inkscape:showpageshadow="0"
     inkscape:pageopacity="0"
     inkscape:pagecheckerboard="0"
     inkscape:deskcolor="#505050"
     showgrid="false"
     inkscape:zoom="0.65186406"
     inkscape:cx="464.82084"
     inkscape:cy="521.58114"
     inkscape:window-width="1920"
     inkscape:window-height="1000"
     inkscape:window-x="0"
     inkscape:window-y="316"
     inkscape:window-maximized="1"
     inkscape:current-layer="layer2" />
  <g
     inkscape:groupmode="layer"
     id="layer1"
     inkscape:label="Layer 1"
     sodipodi:insensitive="true"
     style="display:inline">
    <path
       d="m 0,0 c 0,0 -0.325,1.994 -0.515,1.976 l -36.182,-3.491 c -2.879,-0.278 -5.115,-2.574 -5.317,-5.459 l -0.994,-14.247 -27.992,-1.997 -1.904,12.912 c -0.424,2.872 -2.932,5.037 -5.835,5.037 h -38.188 c -2.902,0 -5.41,-2.165 -5.834,-5.037 l -1.905,-12.912 -27.992,1.997 -0.994,14.247 c -0.202,2.886 -2.438,5.182 -5.317,5.46 l -36.2,3.49 c -0.187,0.018 -0.324,-1.978 -0.511,-1.978 l -0.049,-7.83 30.658,-4.944 1.004,-14.374 c 0.203,-2.91 2.551,-5.263 5.463,-5.472 l 38.551,-2.75 c 0.146,-0.01 0.29,-0.016 0.434,-0.016 2.897,0 5.401,2.166 5.825,5.038 l 1.959,13.286 h 28.005 l 1.959,-13.286 c 0.423,-2.871 2.93,-5.037 5.831,-5.037 0.142,0 0.284,0.005 0.423,0.015 l 38.556,2.75 c 2.911,0.209 5.26,2.562 5.463,5.472 l 1.003,14.374 30.645,4.966 z"
       fill="#ffffff"
       transform="matrix(4.2343802,0,0,-4.2343802,926.26196,674.34512)"
       id="path2" />
    <path
       d="m 0,0 v -47.514 -6.035 -5.492 c 0.108,-0.001 0.216,-0.005 0.323,-0.015 l 36.196,-3.49 c 1.896,-0.183 3.382,-1.709 3.514,-3.609 l 1.116,-15.978 31.574,-2.253 2.175,14.747 c 0.282,1.912 1.922,3.329 3.856,3.329 h 38.188 c 1.933,0 3.573,-1.417 3.855,-3.329 l 2.175,-14.747 31.575,2.253 1.115,15.978 c 0.133,1.9 1.618,3.425 3.514,3.609 l 36.182,3.49 c 0.107,0.01 0.214,0.014 0.322,0.015 v 4.711 l 0.015,0.005 V 0 c 5.09692,6.4164715 9.92323,13.494208 13.621,19.449 -5.651,9.62 -12.575,18.217 -19.976,26.182 -6.864,-3.455 -13.531,-7.369 -19.828,-11.534 -3.151,3.132 -6.7,5.694 -10.186,8.372 -3.425,2.751 -7.285,4.768 -10.946,7.118 1.09,8.117 1.629,16.108 1.846,24.448 -9.446,4.754 -19.519,7.906 -29.708,10.17 -4.068,-6.837 -7.788,-14.241 -11.028,-21.479 -3.842,0.642 -7.702,0.88 -11.567,0.926 v 0.006 c -0.027,0 -0.052,-0.006 -0.075,-0.006 -0.024,0 -0.049,0.006 -0.073,0.006 V 63.652 C 93.903,63.606 90.046,63.368 86.203,62.726 82.965,69.964 79.247,77.368 75.173,84.205 64.989,81.941 54.915,78.789 45.47,74.035 45.686,65.695 46.225,57.704 47.318,49.587 43.65,47.237 39.795,45.22 36.369,42.469 32.888,39.791 29.333,37.229 26.181,34.097 19.884,38.262 13.219,42.176 6.353,45.631 -1.048,37.666 -7.968,29.069 -13.621,19.449 -9.1783421,12.475308 -4.4130298,5.4661124 0,0 Z"
       fill="#478cbf"
       id="path4"
       transform="matrix(4.2343802,0,0,-4.2343802,97.676501,424.3429)" />
    <path
       d="m 0,0 -1.121,-16.063 c -0.135,-1.936 -1.675,-3.477 -3.611,-3.616 l -38.555,-2.751 c -0.094,-0.007 -0.188,-0.01 -0.281,-0.01 -1.916,0 -3.569,1.406 -3.852,3.33 l -2.211,14.994 H -81.09 l -2.211,-14.994 c -0.297,-2.018 -2.101,-3.469 -4.133,-3.32 l -38.555,2.751 c -1.936,0.139 -3.476,1.68 -3.611,3.616 L -130.721,0 -163.268,3.138 c 0.015,-3.498 0.06,-7.33 0.06,-8.093 0,-34.374 43.605,-50.896 97.781,-51.086 h 0.066 0.067 c 54.176,0.19 97.766,16.712 97.766,51.086 0,0.777 0.047,4.593 0.063,8.093 z"
       fill="#478cbf"
       id="path6"
       transform="matrix(4.2343802,0,0,-4.2343802,788.7623,720.70181)" />
    <path
       d="m 0,0 c 0,-12.052 -9.765,-21.815 -21.813,-21.815 -12.042,0 -21.81,9.763 -21.81,21.815 0,12.044 9.768,21.802 21.81,21.802 C -9.765,21.802 0,12.044 0,0"
       fill="#ffffff"
       transform="matrix(4.2343802,0,0,-4.2343802,387.09782,525.82704)"
       id="path8" />
    <path
       d="m 0,0 c 0,-7.994 -6.479,-14.473 -14.479,-14.473 -7.996,0 -14.479,6.479 -14.479,14.473 0,7.994 6.483,14.479 14.479,14.479 C -6.479,14.479 0,7.994 0,0"
       fill="#414042"
       transform="matrix(4.2343802,0,0,-4.2343802,364.87315,531.30565)"
       id="path10" />
    <path
       d="m 0,0 c -3.878,0 -7.021,2.858 -7.021,6.381 v 20.081 c 0,3.52 3.143,6.381 7.021,6.381 3.878,0 7.028,-2.861 7.028,-6.381 V 6.381 C 7.028,2.858 3.878,0 0,0"
       fill="#ffffff"
       transform="matrix(4.2343802,0,0,-4.2343802,511.99322,626.60362)"
       id="path12" />
    <path
       d="m 0,0 c 0,-12.052 9.765,-21.815 21.815,-21.815 12.041,0 21.808,9.763 21.808,21.815 0,12.044 -9.767,21.802 -21.808,21.802 C 9.765,21.802 0,12.044 0,0"
       fill="#ffffff"
       transform="matrix(4.2343802,0,0,-4.2343802,636.90405,525.82704)"
       id="path14" />
    <path
       d="m 0,0 c 0,-7.994 6.477,-14.473 14.471,-14.473 8.002,0 14.479,6.479 14.479,14.473 0,7.994 -6.477,14.479 -14.479,14.479 C 6.477,14.479 0,7.994 0,0"
       fill="#414042"
       transform="matrix(4.2343802,0,0,-4.2343802,659.13434,531.30565)"
       id="path16" />
  </g>
  <g
     inkscape:groupmode="layer"
     id="layer2"
     inkscape:label="Layer 2">
    <path
       id="path2-3"
       style="fill:none;stroke:#ffffff;stroke-width:28;stroke-dasharray:none;stroke-opacity:1"
       d="m 415.98828,67.787109 c -43.12288,9.586628 -85.78171,22.932279 -125.77539,43.062501 0.91462,35.31469 3.19801,69.153 7.82617,103.52344 -15.53168,9.95078 -31.8563,18.49185 -46.36328,30.14062 -14.73985,11.33966 -29.79191,22.18715 -43.13867,35.44922 C 181.87325,262.32671 153.65135,245.75281 124.57812,231.12305 93.239507,264.84985 63.936928,301.25358 40,341.98828 c 18.811884,29.52923 38.989354,59.20989 57.675781,82.35547 v 201.19141 c 0,0 0.002,112.91752 0.002,116.14834 0,145.55245 184.639451,215.51188 414.041011,216.31641 h 0.2793 0.28515 c 229.40155,-0.80453 413.97852,-70.76396 413.97852,-216.31641 0,-3.2901 -0.002,-87.28731 -0.002,-87.28731 l 0.0644,-0.0215 V 424.34375 C 947.9065,397.174 968.34225,367.20311 984,341.98828 c -23.92847,-40.7347 -53.24732,-77.13843 -84.58594,-110.86523 -29.06476,14.62976 -57.29512,31.20366 -83.95898,48.83984 -13.34252,-13.26207 -28.36983,-24.10956 -43.13086,-35.44922 -14.50274,-11.64877 -30.84757,-20.18984 -46.34961,-30.14062 4.61546,-34.37044 6.89755,-68.20875 7.81641,-103.52344 C 693.79311,90.719388 651.14015,77.373737 607.99609,67.787109 590.77066,96.737538 575.0182,128.08791 561.29883,158.73633 c -16.26848,-2.71847 -32.61265,-3.72514 -48.97852,-3.91992 v -0.0254 c -0.11432,0 -0.22096,0.0254 -0.31836,0.0254 -0.10162,0 -0.20697,-0.0254 -0.30859,-0.0254 v 0.0254 c -16.39551,0.19478 -32.7273,1.20145 -49,3.91992 -13.71092,-30.64842 -29.45423,-61.998792 -46.70508,-90.949221 z"
       sodipodi:nodetypes="cccccccccscccscccccccccccccscccc" />
  </g>
</svg>
